<?xml version="1.0" encoding="utf-8"?>
<!DOCTYPE svg PUBLIC "-//W3C//DTD SVG 1.1//EN" "http://www.w3.org/Graphics/SVG/1.1/DTD/svg11.dtd">
<svg version="1.1" xmlns="http://www.w3.org/2000/svg" xmlns:xlink="http://www.w3.org/1999/xlink" x="0px" y="0px"
	 width="595.275px" height="595.275px" viewBox="0 0 595.275 595.275" enable-background="new 0 0 595.275 595.275"
	 xml:space="preserve">
<g id="Layer_3">
	<rect x="0" y="0" fill="#D34A0D" width="595.275" height="595.275"/>
</g>
<g id="Layer_2">
	<path fill="none" stroke="#FFFFFF" stroke-width="20" stroke-miterlimit="10" d="M473.344,467.024h-36.747l-11.817-41.616
		l-32.064-112.919l-20.163-71h0.002L336.36,114.034c-15.284-53.828-62.16-53.833-77.445,0l-36.191,127.455h-0.001l-20.161,71
		l-32.066,112.919l-11.817,41.616h-36.743c-15.196,0-27.516,12.321-27.516,27.516c0,15.195,12.319,27.516,27.516,27.516h351.41
		c15.192,0,27.515-12.318,27.515-27.516C500.858,479.345,488.538,467.024,473.344,467.024z"/>
</g>
<g id="Layer_1">
	<path fill="#FFFFFF" d="M473.344,467.024h-351.41c-15.196,0-27.516,12.321-27.516,27.516c0,15.195,12.319,27.516,27.516,27.516
		h351.41c15.192,0,27.515-12.318,27.515-27.516C500.858,479.345,488.538,467.024,473.344,467.024z"/>
	<g>
		<path fill="#FFFFFF" d="M336.36,114.034c-15.284-53.828-62.16-53.833-77.445,0l-36.191,127.455h149.831L336.36,114.034z"/>
		<polygon fill="#FFFFFF" points="202.561,312.489 170.495,425.408 424.78,425.408 392.716,312.489 		"/>
		<polygon fill="#D34A0D" points="158.677,467.024 436.597,467.024 416.659,396.809 178.616,396.809 		"/>
		<polygon fill="#D34A0D" points="361.225,201.596 234.051,201.596 202.561,312.489 392.716,312.489 		"/>
	</g>
</g>
</svg>
