<?xml version="1.0" encoding="utf-8"?>
<!-- Generator: Adobe Illustrator 16.0.3, SVG Export Plug-In . SVG Version: 6.00 Build 0)  -->
<!DOCTYPE svg PUBLIC "-//W3C//DTD SVG 1.1//EN" "http://www.w3.org/Graphics/SVG/1.1/DTD/svg11.dtd">
<svg version="1.1" id="Layer_1" xmlns="http://www.w3.org/2000/svg" xmlns:xlink="http://www.w3.org/1999/xlink" x="0px" y="0px"
	 width="595.275px" height="595.275px" viewBox="0 0 595.275 595.275" enable-background="new 0 0 595.275 595.275"
	 xml:space="preserve">
<rect x="0" y="0" fill="#3A1D12" width="595.275" height="595.275"/>
<path fill="#D34A0D" d="M473.344,467.024h-351.41c-15.196,0-27.514,12.321-27.514,27.516c0,15.195,12.319,27.514,27.514,27.514
	h351.41c15.194,0,27.515-12.318,27.515-27.514C500.858,479.345,488.538,467.024,473.344,467.024z"/>
<g>
	<path fill="#D34A0D" d="M336.36,114.034c-15.284-53.828-62.16-53.833-77.445,0l-36.193,127.455h149.831L336.36,114.034z"/>
	<polygon fill="#D34A0D" points="202.561,312.489 170.495,425.408 424.78,425.408 392.716,312.489 	"/>
	<polygon fill="#FFFFFF" points="158.677,467.024 436.597,467.024 424.78,425.408 170.495,425.408 	"/>
	<polygon fill="#FFFFFF" points="372.552,241.489 222.722,241.489 202.561,312.489 392.716,312.489 	"/>
</g>
</svg>
