<?xml version="1.0" encoding="utf-8"?>
<!-- Generator: Adobe Illustrator 16.0.3, SVG Export Plug-In . SVG Version: 6.00 Build 0)  -->
<!DOCTYPE svg PUBLIC "-//W3C//DTD SVG 1.1//EN" "http://www.w3.org/Graphics/SVG/1.1/DTD/svg11.dtd">
<svg version="1.1" id="Layer_1" xmlns="http://www.w3.org/2000/svg" xmlns:xlink="http://www.w3.org/1999/xlink" x="0px" y="0px"
	 width="595.275px" height="595.275px" viewBox="0 0 595.275 595.275" enable-background="new 0 0 595.275 595.275"
	 xml:space="preserve">
<g opacity="0.55">
	<path fill="#FFFFFF" d="M73.715,0v595.281h446.461V148.82L371.355,0H73.715z"/>
	<path opacity="0.65" fill="#FFFFFF" enable-background="new    " d="M371.355,148.076V0l148.82,148.82L371.355,148.076z"/>
	<path opacity="0.15" enable-background="new    " d="M482.97,186.918v185.133L334.15,186.025L482.97,186.918z"/>
	<path fill="#B9B9B9" d="M73.715,0v595.281h446.461V148.82h-0.447l0.149-0.298L371.653,0.223l-0.298,0.298V0H73.715z M110.92,37.205
		h223.23v148.82h148.82v372.051H110.92V37.205z M371.355,52.534l96.212,96.286h-96.212V52.534z"/>
</g>
<path fill="#999999" d="M69.739,210.098v69.739H39.85c-22.017,0-39.85,17.832-39.85,39.85v199.26
	c0,22.018,17.833,39.851,39.85,39.851h318.815c22.015,0,39.854-17.833,39.854-39.851v-199.26c0-22.018-17.839-39.85-39.854-39.85
	h-29.888v-69.739c0-71.533-57.986-129.518-129.518-129.518C127.731,80.58,69.739,138.565,69.739,210.098z M119.553,279.837v-69.739
	c0-44.035,35.668-79.705,79.705-79.705c44.035,0,79.704,35.67,79.704,79.705v69.739H119.553z M159.408,389.427
	c0-22.016,17.832-39.851,39.85-39.851c22.017,0,39.851,17.835,39.851,39.851c0,14.05-7.275,26.408-18.228,33.481
	c0,0,3.893,23.514,8.269,51.205c0,8.269-6.673,14.942-14.945,14.942h-29.892c-8.268,0-14.941-6.674-14.941-14.942l8.271-51.205
	C166.682,415.835,159.408,403.478,159.408,389.427z"/>
</svg>
