<?xml version="1.0" encoding="utf-8"?>
<!DOCTYPE svg PUBLIC "-//W3C//DTD SVG 1.1//EN" "http://www.w3.org/Graphics/SVG/1.1/DTD/svg11.dtd">
<svg version="1.1" id="Layer_1" xmlns="http://www.w3.org/2000/svg" xmlns:xlink="http://www.w3.org/1999/xlink" x="0px" y="0px"
	 width="595.275px" height="595.275px" viewBox="0 0 595.275 595.275" enable-background="new 0 0 595.275 595.275"
	 xml:space="preserve">
<g opacity="0.55">
	<path fill="#FFFFFF" d="M73.715,0v595.281h446.461V148.82L371.355,0H73.715z"/>
	<path opacity="0.65" fill="#FFFFFF" enable-background="new    " d="M371.355,148.076V0l148.82,148.82L371.355,148.076z"/>
	<path opacity="0.15" enable-background="new    " d="M482.97,186.918v185.133L334.15,186.025L482.97,186.918z"/>
	<path fill="#B9B9B9" d="M73.715,0v595.281h446.461V148.82h-0.447l0.149-0.298L371.653,0.223l-0.298,0.298V0H73.715z M110.92,37.205
		h223.23v148.82h148.82v372.051H110.92V37.205z M371.355,52.534l96.212,96.286h-96.212V52.534z"/>
</g>
<path opacity="0.65" fill="#FFFFFF" enable-background="new    " d="M371.355,148.82V0l148.82,148.82H371.355z"/>
<g>
	<path fill="#D3805B" d="M421.926,497.734H46.548c-16.232,0-29.391,13.524-29.391,30.204c0,16.679,13.159,30.199,29.391,30.199
		h375.377c16.231,0,29.393-13.521,29.393-30.199C451.317,511.26,438.157,497.734,421.926,497.734z"/>
	<g>
		<path fill="#D3805B" d="M275.599,110.277c-16.327-59.085-66.399-59.089-82.728,0L154.21,250.176H314.26L275.599,110.277z"/>
		<polygon fill="#D3805B" points="132.674,328.109 98.422,452.054 370.051,452.054 335.8,328.109 		"/>
		<polygon fill="#FFEAE0" points="85.798,497.734 382.674,497.734 370.051,452.054 98.422,452.054 		"/>
		<polygon fill="#FFEAE0" points="314.26,250.177 154.211,250.177 132.674,328.109 335.8,328.109 		"/>
	</g>
</g>
</svg>
